TITLE ""
FILE "2Q_t_0671-0687.mp3" MP3
  TRACK 01 AUDIO
    TITLE "2Q_t_0671-0687_01"
    INDEX 01 00:00:00
  TRACK 02 AUDIO
    TITLE "2Q_t_0671-0687_02"
    INDEX 01 00:00:08
  TRACK 03 AUDIO
    TITLE "2Q_t_0671-0687_03"
    INDEX 01 00:01:12
  TRACK 04 AUDIO
    TITLE "2Q_t_0671-0687_04"
    INDEX 01 00:01:59
  TRACK 05 AUDIO
    TITLE "2Q_t_0671-0687_05"
    INDEX 01 00:04:39
  TRACK 06 AUDIO
    TITLE "2Q_t_0671-0687_06"
    INDEX 01 00:05:10
  TRACK 07 AUDIO
    TITLE "2Q_t_0671-0687_07"
    INDEX 01 00:06:23
  TRACK 08 AUDIO
    TITLE "2Q_t_0671-0687_08"
    INDEX 01 00:06:70
  TRACK 09 AUDIO
    TITLE "2Q_t_0671-0687_09"
    INDEX 01 00:09:09
  TRACK 10 AUDIO
    TITLE "2Q_t_0671-0687_10"
    INDEX 01 00:09:52
  TRACK 11 AUDIO
    TITLE "2Q_t_0671-0687_11"
    INDEX 01 00:11:04
  TRACK 12 AUDIO
    TITLE "2Q_t_0671-0687_12"
    INDEX 01 00:11:61
  TRACK 13 AUDIO
    TITLE "2Q_t_0671-0687_13"
    INDEX 01 00:14:42
  TRACK 14 AUDIO
    TITLE "2Q_t_0671-0687_14"
    INDEX 01 00:15:14
  TRACK 15 AUDIO
    TITLE "2Q_t_0671-0687_15"
    INDEX 01 00:16:17
  TRACK 16 AUDIO
    TITLE "2Q_t_0671-0687_16"
    INDEX 01 00:16:62
  TRACK 17 AUDIO
    TITLE "2Q_t_0671-0687_17"
    INDEX 01 00:19:31
  TRACK 18 AUDIO
    TITLE "2Q_t_0671-0687_18"
    INDEX 01 00:20:01
  TRACK 19 AUDIO
    TITLE "2Q_t_0671-0687_19"
    INDEX 01 00:21:05
  TRACK 20 AUDIO
    TITLE "2Q_t_0671-0687_20"
    INDEX 01 00:21:59
  TRACK 21 AUDIO
    TITLE "2Q_t_0671-0687_21"
    INDEX 01 00:24:05
  TRACK 22 AUDIO
    TITLE "2Q_t_0671-0687_22"
    INDEX 01 00:24:52
  TRACK 23 AUDIO
    TITLE "2Q_t_0671-0687_23"
    INDEX 01 00:26:10
  TRACK 24 AUDIO
    TITLE "2Q_t_0671-0687_24"
    INDEX 01 00:26:59
  TRACK 25 AUDIO
    TITLE "2Q_t_0671-0687_25"
    INDEX 01 00:28:63
  TRACK 26 AUDIO
    TITLE "2Q_t_0671-0687_26"
    INDEX 01 00:29:34
  TRACK 27 AUDIO
    TITLE "2Q_t_0671-0687_27"
    INDEX 01 00:30:54
  TRACK 28 AUDIO
    TITLE "2Q_t_0671-0687_28"
    INDEX 01 00:31:23
  TRACK 29 AUDIO
    TITLE "2Q_t_0671-0687_29"
    INDEX 01 00:32:28
  TRACK 30 AUDIO
    TITLE "2Q_t_0671-0687_30"
    INDEX 01 00:33:00
  TRACK 31 AUDIO
    TITLE "2Q_t_0671-0687_31"
    INDEX 01 00:35:46
  TRACK 32 AUDIO
    TITLE "2Q_t_0671-0687_32"
    INDEX 01 00:36:16
  TRACK 33 AUDIO
    TITLE "2Q_t_0671-0687_33"
    INDEX 01 00:37:39
  TRACK 34 AUDIO
    TITLE "2Q_t_0671-0687_34"
    INDEX 01 00:38:17
  TRACK 35 AUDIO
    TITLE "2Q_t_0671-0687_35"
    INDEX 01 00:40:57
  TRACK 36 AUDIO
    TITLE "2Q_t_0671-0687_36"
    INDEX 01 00:41:27
  TRACK 37 AUDIO
    TITLE "2Q_t_0671-0687_37"
    INDEX 01 00:42:32
  TRACK 38 AUDIO
    TITLE "2Q_t_0671-0687_38"
    INDEX 01 00:43:02
  TRACK 39 AUDIO
    TITLE "2Q_t_0671-0687_39"
    INDEX 01 00:45:38
  TRACK 40 AUDIO
    TITLE "2Q_t_0671-0687_40"
    INDEX 01 00:46:08
  TRACK 41 AUDIO
    TITLE "2Q_t_0671-0687_41"
    INDEX 01 00:47:10
  TRACK 42 AUDIO
    TITLE "2Q_t_0671-0687_42"
    INDEX 01 00:47:65
  TRACK 43 AUDIO
    TITLE "2Q_t_0671-0687_43"
    INDEX 01 00:49:71
  TRACK 44 AUDIO
    TITLE "2Q_t_0671-0687_44"
    INDEX 01 00:50:42
  TRACK 45 AUDIO
    TITLE "2Q_t_0671-0687_45"
    INDEX 01 00:52:01
  TRACK 46 AUDIO
    TITLE "2Q_t_0671-0687_46"
    INDEX 01 00:52:50
  TRACK 47 AUDIO
    TITLE "2Q_t_0671-0687_47"
    INDEX 01 00:53:59
  TRACK 48 AUDIO
    TITLE "2Q_t_0671-0687_48"
    INDEX 01 00:54:30
  TRACK 49 AUDIO
    TITLE "2Q_t_0671-0687_49"
    INDEX 01 00:55:33
  TRACK 50 AUDIO
    TITLE "2Q_t_0671-0687_50"
    INDEX 01 00:56:13
  TRACK 51 AUDIO
    TITLE "2Q_t_0671-0687_51"
    INDEX 01 00:58:12
  TRACK 52 AUDIO
    TITLE "2Q_t_0671-0687_52"
    INDEX 01 00:58:55
  TRACK 53 AUDIO
    TITLE "2Q_t_0671-0687_53"
    INDEX 01 00:59:52
  TRACK 54 AUDIO
    TITLE "2Q_t_0671-0687_54"
    INDEX 01 01:00:28
  TRACK 55 AUDIO
    TITLE "2Q_t_0671-0687_55"
    INDEX 01 01:02:62
  TRACK 56 AUDIO
    TITLE "2Q_t_0671-0687_56"
    INDEX 01 01:03:30
  TRACK 57 AUDIO
    TITLE "2Q_t_0671-0687_57"
    INDEX 01 01:04:42
  TRACK 58 AUDIO
    TITLE "2Q_t_0671-0687_58"
    INDEX 01 01:05:18
  TRACK 59 AUDIO
    TITLE "2Q_t_0671-0687_59"
    INDEX 01 01:07:56
  TRACK 60 AUDIO
    TITLE "2Q_t_0671-0687_60"
    INDEX 01 01:08:28
  TRACK 61 AUDIO
    TITLE "2Q_t_0671-0687_61"
    INDEX 01 01:09:41
  TRACK 62 AUDIO
    TITLE "2Q_t_0671-0687_62"
    INDEX 01 01:10:17
  TRACK 63 AUDIO
    TITLE "2Q_t_0671-0687_63"
    INDEX 01 01:12:49
  TRACK 64 AUDIO
    TITLE "2Q_t_0671-0687_64"
    INDEX 01 01:13:19
  TRACK 65 AUDIO
    TITLE "2Q_t_0671-0687_65"
    INDEX 01 01:14:32
  TRACK 66 AUDIO
    TITLE "2Q_t_0671-0687_66"
    INDEX 01 01:15:04
  TRACK 67 AUDIO
    TITLE "2Q_t_0671-0687_67"
    INDEX 01 01:17:40
  TRACK 68 AUDIO
    TITLE "2Q_t_0671-0687_68"
    INDEX 01 01:18:10
  TRACK 69 AUDIO
    TITLE "2Q_t_0671-0687_69"
    INDEX 01 01:19:12
  TRACK 70 AUDIO
    TITLE "2Q_t_0671-0687_70"
    INDEX 01 01:19:69
  TRACK 71 AUDIO
    TITLE "2Q_t_0671-0687_71"
    INDEX 01 01:22:43
